<svg width="25" height="25" viewBox="0 0 25 25" fill="none" xmlns="http://www.w3.org/2000/svg">
<path d="M12.4999 2.125C6.77075 2.125 2.08325 6.80208 2.08325 12.5625C2.08325 17.7708 5.89575 22.0937 10.8749 22.875V15.5833H8.22909V12.5625H10.8749V10.2604C10.8749 7.64583 12.427 6.20833 14.8124 6.20833C15.9478 6.20833 17.1353 6.40625 17.1353 6.40625V8.97917H15.8228C14.5311 8.97917 14.1249 9.78125 14.1249 10.6042V12.5625H17.0207L16.552 15.5833H14.1249V22.875C16.5795 22.4873 18.8147 21.2349 20.4269 19.3438C22.0391 17.4527 22.9221 15.0475 22.9165 12.5625C22.9165 6.80208 18.229 2.125 12.4999 2.125Z" fill="black"/>
</svg>
