<svg width="25" height="25" viewBox="0 0 25 25" fill="none" xmlns="http://www.w3.org/2000/svg">
<path d="M9.41659 22.4374C10.4165 22.7395 11.427 22.9166 12.4999 22.9166C15.2626 22.9166 17.9121 21.8191 19.8656 19.8656C21.8191 17.9121 22.9165 15.2626 22.9165 12.4999C22.9165 11.132 22.6471 9.77744 22.1236 8.51363C21.6001 7.24982 20.8329 6.1015 19.8656 5.13422C18.8983 4.16695 17.75 3.39966 16.4862 2.87617C15.2224 2.35269 13.8678 2.08325 12.4999 2.08325C11.1319 2.08325 9.77744 2.35269 8.51363 2.87617C7.24983 3.39966 6.1015 4.16695 5.13422 5.13422C3.18072 7.08773 2.08325 9.73725 2.08325 12.4999C2.08325 16.927 4.8645 20.7291 8.79159 22.2291C8.69784 21.4166 8.60409 20.0728 8.79159 19.1458L9.9895 13.9999C9.9895 13.9999 9.68742 13.3958 9.68742 12.4374C9.68742 10.9999 10.5832 9.927 11.604 9.927C12.4999 9.927 12.9165 10.5833 12.9165 11.427C12.9165 12.3228 12.3228 13.6041 12.0207 14.8333C11.8436 15.8541 12.5624 16.7499 13.604 16.7499C15.4582 16.7499 16.8957 14.7708 16.8957 11.9791C16.8957 9.47908 15.104 7.77075 12.5311 7.77075C9.59367 7.77075 7.8645 9.95825 7.8645 12.2603C7.8645 13.1562 8.15617 14.0624 8.63534 14.6562C8.72909 14.7187 8.72909 14.802 8.69784 14.9583L8.39575 16.0937C8.39575 16.2708 8.28117 16.3333 8.10409 16.2083C6.77075 15.6249 5.99992 13.7291 5.99992 12.1978C5.99992 8.90617 8.33325 5.91658 12.8332 5.91658C16.4165 5.91658 19.2082 8.4895 19.2082 11.9062C19.2082 15.4895 16.9895 18.3645 13.8124 18.3645C12.802 18.3645 11.8124 17.8228 11.4582 17.1874L10.7603 19.6562C10.5207 20.552 9.8645 21.7499 9.41659 22.4687V22.4374Z" fill="black"/>
</svg>
