<svg width="25" height="25" viewBox="0 0 25 25" fill="none" xmlns="http://www.w3.org/2000/svg">
<path d="M10.4165 15.6249L15.8228 12.4999L10.4165 9.37492V15.6249ZM22.4582 7.46867C22.5936 7.95825 22.6874 8.6145 22.7499 9.44783C22.8228 10.2812 22.854 10.9999 22.854 11.6249L22.9165 12.4999C22.9165 14.7812 22.7499 16.4583 22.4582 17.5312C22.1978 18.4687 21.5936 19.0728 20.6561 19.3333C20.1665 19.4687 19.2707 19.5624 17.8957 19.6249C16.5415 19.6978 15.302 19.7291 14.1561 19.7291L12.4999 19.7916C8.13534 19.7916 5.41659 19.6249 4.34367 19.3333C3.40617 19.0728 2.802 18.4687 2.54159 17.5312C2.40617 17.0416 2.31242 16.3853 2.24992 15.552C2.177 14.7187 2.14575 13.9999 2.14575 13.3749L2.08325 12.4999C2.08325 10.2187 2.24992 8.54159 2.54159 7.46867C2.802 6.53117 3.40617 5.927 4.34367 5.66659C4.83325 5.53117 5.72909 5.43742 7.10409 5.37492C8.45825 5.302 9.69784 5.27075 10.8436 5.27075L12.4999 5.20825C16.8645 5.20825 19.5832 5.37492 20.6561 5.66659C21.5936 5.927 22.1978 6.53117 22.4582 7.46867Z" fill="black"/>
</svg>
