<svg viewBox="0 0 374 64" fill="none" class="h-5 sm:ml-4" xmlns="http://www.w3.org/2000/svg"><g clip-path="url(#clip0_1381_345)"><path d="M307.572 63.9948C326.606 63.9948 342.02 49.6665 342.02 32C342.02 14.3334 326.597 0.00512695 307.572 0.00512695C288.547 0.00512695 273.116 14.3334 273.116 32C273.116 49.6665 288.538 63.9948 307.572 63.9948Z" fill="#EF945A"></path><path d="M307.563 55.5022C321.02 55.5022 331.921 44.983 331.921 32C331.921 19.0171 321.012 8.4895 307.563 8.4895C294.115 8.4895 283.206 19.0171 283.206 32C283.206 44.983 294.115 55.5022 307.563 55.5022Z" fill="#FFFF7B"></path><path d="M0.333313 28.7626V19.7654H21.24V42.3089C21.24 43.8729 22.4211 45.7817 24.7666 45.7817H28.8248C31.1955 45.7817 32.3514 43.8729 32.3598 42.3089C32.3598 41.3167 32.3598 28.7626 32.3598 28.7626V19.7654H49.7567V51.4659H52.524V60.5977H32.3598V54.678C32.3598 54.678 28.8332 60.5977 22.8261 60.5977H18.2027C10.9469 60.5977 3.10062 56.9231 3.10062 45.7817V28.7626H0.333313Z" fill="#940000"></path><path d="M61.4166 60.5894V51.4576H64.0404V28.7543H61.2731V19.7571H64.0404V11.0205C64.0404 6.16874 67.4743 3.15845 71.9205 3.15845H88.0519V12.1557H83.7997C81.5892 12.1557 79.2522 13.4422 79.2522 16.6627V19.7487H88.0603L88.0434 28.7459H79.2522V51.4492H88.0434V60.581H61.4081L61.4166 60.5894Z" fill="#940000"></path><path d="M148.975 28.7625H146.191L146.208 19.7653H148.975V10.7681L166.397 3.19189V19.7653H174.842V28.7625H166.397V48.4387C166.397 51.4658 174.842 47.6147 174.842 47.6147V56.3681C174.842 56.3681 174.842 60.5976 166.397 60.5976H158.137C153.556 60.5976 148.975 57.7639 148.975 51.4658V28.7625Z" fill="#940000"></path><path d="M297.245 60.5977L297.254 51.4659H300.029V12.164H297.245V3.16675H314.954V51.4659H317.73L317.721 60.5977H297.245Z" fill="#940000"></path><path d="M93.9155 42.6453C93.9155 52.4918 104.495 60.4716 117.556 60.4716C130.616 60.4716 141.188 52.4918 141.188 42.6453C141.188 32.7988 130.608 24.8274 117.556 24.8274C104.504 24.8274 93.9155 32.8072 93.9155 42.6453Z" fill="#009CFF"></path><path d="M117.556 54.308C125.427 54.308 131.814 49.0862 131.814 42.6452C131.814 36.2042 125.427 30.9824 117.556 30.9824C109.684 30.9824 103.297 36.2042 103.297 42.6452C103.297 49.0862 109.684 54.308 117.556 54.308Z" fill="#FF5252"></path><path d="M117.556 48.2958C121.597 48.2958 124.871 45.6892 124.871 42.4686C124.871 39.2481 121.597 36.6331 117.556 36.6331C113.514 36.6331 110.241 39.2481 110.241 42.4686C110.241 45.6892 113.514 48.2958 117.556 48.2958Z" fill="#9C3100"></path><path d="M273.563 19.757H267.345C261.135 19.757 259.077 24.8694 259.077 24.8694V3.16675H238.879V12.164H241.654V51.4659H237.486V60.5977H259.077V57.3772C259.077 57.3772 261.127 60.5977 267.345 60.5977H273.563C283.206 60.5977 288.479 55.5105 288.479 44.1672V37.2722C288.479 24.1379 280.515 19.7654 273.563 19.7654V19.757ZM273.563 47.6064C273.563 50.6251 271.58 52.7188 266.813 52.7188C263.05 52.7188 259.077 51.1128 259.077 47.6064V37.6674C259.077 34.1694 263.101 32.6306 266.872 32.6138C270.981 32.597 273.563 34.985 273.563 37.6674V47.6064Z" fill="#940000"></path><path d="M230.442 60.5978V51.466H227.666L227.641 33.0343C227.641 20.8418 217.339 19.7571 212.741 19.7571H202.195C194.045 19.7571 183.322 21.3043 183.322 33.0343H198.246C198.246 30.436 199.554 28.7627 202.406 28.7627H208.582C211.197 28.7627 212.733 30.3435 212.733 33.0343V37.6675C212.733 37.6675 210.657 35.3467 204.422 35.3467H198.246C191.455 35.3467 183.322 41.4177 183.322 48.6239C183.322 57.3773 187.65 60.5978 198.246 60.5978H204.464C210.876 60.5978 212.733 57.3773 212.733 57.3773V60.5978H230.442ZM212.733 48.1278C212.733 49.902 212.657 52.7189 206.658 52.7189C201.334 52.7189 198.246 52.4751 198.246 48.1278C198.246 44.6298 202.22 42.9901 205.983 43.0154C212.927 43.0658 212.733 45.4454 212.733 48.1278Z" fill="#940000"></path><path d="M373.667 42.6454V40.1648C373.667 30.9658 367.778 19.7571 352.051 19.7571H345.833C335.608 19.7571 324.311 28.7964 324.311 40.1648V42.6454C324.311 56.343 337.616 60.5978 345.833 60.5978H352.051C366.959 60.5978 372.241 52.7189 372.747 49.3302L355.443 46.7572C354.768 49.5741 352.051 51.466 350.33 51.466H347.554C345.833 51.466 341.978 49.2798 341.978 44.8989V42.6538H373.667V42.6454ZM347.554 28.7627H350.33C352.051 28.7627 355.679 30.9658 355.679 35.3551H341.978C341.978 30.9069 345.833 28.7627 347.554 28.7627Z" fill="#940000"></path></g><defs><clipPath id="clip0_1381_345"><rect width="373.333" height="64" fill="white" transform="translate(0.333313)"></rect></clipPath></defs></svg>